<svg version="1.2" xmlns="http://www.w3.org/2000/svg" viewBox="0 0 1022 914" width="1022" height="914">
    <defs>
        <linearGradient id="Gradient1" x1="0" x2="0" y1="0" y2="1">
            <stop offset="5%" stop-color="#FE0000dd" stop-opacity="10" />
            <stop offset="20%" stop-color="#FD8C00dd" />
            <stop offset="35%" stop-color="#FFE500dd" />
            <stop offset="58%" stop-color="#119F0Bdd" />
            <stop offset="83%" stop-color="#0644B3dd" />
        </linearGradient>

        <linearGradient id="Gradient2" x1="0" x2="0" y1="0" y2="1">
            <stop offset="30%" stop-color="#FD8C00dd" stop-opacity="10" />
            <stop offset="100%" stop-color="#FFE500dd" />
        </linearGradient>

    </defs>
    <style>
        .a {
            fill: #C22EDC;
        }

        .b {
            fill: #FE0000;
        }

        .c {
            fill: #FD8C00;
        }

        .d {
            fill: #FFE500;
        }

        .e {
            fill: #119F0Bcc;
        }

        .f {
            fill: #0644B3;
        }

        .bg {
            fill: url(#Gradient1);
        }

        .lett-big {
            fill: url(#Gradient2);
        }
    </style>
    <path stroke="white" class="e"
        d="m792.8 504.4c-0.8 0.4-1.3 0.5-2.1 0.5l0.1 0.1c-0.2 0-0.4-0.7-0.4-1.9 0-6.2-0.1-11.6-0.5-16.2 0-1 0.5-1.8 1.6-1.8 3.7-0.2 6.6 1.3 8.2 3.6 1.1 1.2 1.5 2.9 1.4 4.9-0.2 3.8-3.5 8.4-8.3 10.8z" />
    <path stroke="white" class="e"
        d="m635.1 495c0.1 0.7 0.3 16.7 0.1 20.7-0.4 8.2-1.9 13.8-4.3 15.4-1.1 0.7-1.7 0.5-2.7-0.5-1-1.2-1.9-3.3-2.9-6.4-1.9-7.2-5.2-26.2-0.2-35.8 0.7-1.5 2.6-3.2 4.2-3.5 2.3-0.5 3.7 0.9 4.7 3.6 0.6 1.7 1 3.9 1.1 6.5z" />
    <path stroke="white" class="e"
        d="m610.7 489.3c1.2 3.3 1.4 7.4 1.5 12.9 0 1-0.9 1.6-2.6 1.7-2.4 0.1-4.1 0.2-5.6 0.6-1.1 0.3-1.8-0.2-1.7-1.4 0.4-6.3 1-11.4 2.1-14.2 1.8-4.4 4.7-4.3 6.3 0.4z" />
    <path stroke="white" class="e"
        d="m448.6 495c0.1 0.7 0.3 16.7 0.1 20.7-0.4 8.2-1.9 13.8-4.3 15.4-1.1 0.7-1.8 0.5-2.8-0.5-0.9-1.2-1.9-3.3-2.8-6.4-2-7.2-5.2-26.2-0.2-35.8 0.7-1.5 2.6-3.2 4.2-3.5 2.3-0.5 3.7 0.9 4.7 3.6 0.6 1.7 1 3.9 1.1 6.5z" />
    <path stroke="white" class="lett-big"
        d="m753.6 297.8c2.2-19.3 4.5-34.8 6.8-47.3 1.9-9.5 4.1-16.7 6-22 1.9-4.9 4.2-7.5 6.1-8.7 3-1.5 5.3 1.2 6.8 4.2 2.3 4.5 4.2 11.3 5.3 17 1.1 8 2.3 20.1 2.3 22 1.9 12.1 3.4 24.2 4.9 36.3 0.4 5.3-2.7 8-8 7.6-7.9-0.4-15.5-0.8-23.1-0.8-5.3-0.4-7.5-3-7.1-8.3z" />
    <path stroke="white" class="e"
        d="m727 506c-0.9 9.6-4.6 18.9-8.4 23.1-1 1.1-2.2 0.5-2.2-0.9-0.1-1.2-0.1-2.7 0-4.3 0.1-5.2 0.2-8.3 0.1-9.2 0-0.2-0.1-2-0.3-5.1-0.1-3.1-0.2-5.5-0.2-6.9-0.1-1.4-0.1-3.4-0.2-6.1 0-4.2 0.1-7.3 0.4-9.7 0.2-1 1-1.6 2-1.3 6.7 1.7 9.8 8.9 8.8 20.4z" />
    <path stroke="white" class="e"
        d="m567.2 495.4c0.4 2.6 0.7 5.3 1.1 7.9 0.1 1.2-0.6 1.7-1.8 1.7-1.7-0.1-3.3-0.2-5-0.2-1.2-0.1-1.7-0.7-1.6-1.8 0.5-4.2 1-7.6 1.5-10.4 0.4-2 0.9-3.6 1.3-4.8 0.5-1 0.9-1.6 1.4-1.9 0.6-0.3 1.1 0.3 1.4 1 0.5 0.9 1 2.4 1.2 3.7 0.3 1.7 0.5 4.4 0.5 4.8z" />
    <path stroke="white" class="b" d="m515.8 520.5l-0.7-2.3q0.4 1.3 0.7 2.3z" />
    <path stroke="white" class="e"
        d="m357.5 490.4c8.1 9.8 5 25-2.5 36.3-0.8 1.4-2.2 1-2.3-0.6-0.2-4.9-0.3-10.8-0.2-17.4 0.1-3.5 0.3-13.7 0.4-19.8 0-1.3 0.9-2 1.9-1.1 0.9 0.5 1.7 1.5 2.7 2.6z" />
    <path stroke="white" class="lett-big"
        d="m509.4 298.5c0-28.7-0.7-53.3-2.3-74.5 0-4.6 2.3-8 7.2-8 16.7-0.7 29.9 5.7 37.5 16.3 4.9 5.7 6.8 13.3 6.4 22.3-1.1 17.4-16.2 38.6-38.2 49.6-3.4 1.9-5.7 2.3-9.4 2.3l0.3 0.4c-0.7 0-1.5-3.1-1.5-8.4z" />
    <path stroke="white" class="e"
        d="m279 504.4c-0.7 0.4-1.2 0.5-2 0.5v0.1c-0.1 0-0.3-0.7-0.3-1.9 0-6.2-0.1-11.6-0.5-16.2 0-1 0.5-1.8 1.6-1.8 3.6-0.2 6.5 1.3 8.2 3.6 1.1 1.2 1.5 2.9 1.4 4.9-0.3 3.8-3.6 8.4-8.4 10.8z" />
    <path stroke="white" class="e"
        d="m314.6 495.4c0.4 2.6 0.7 5.3 1.1 7.9 0.1 1.2-0.6 1.7-1.8 1.7-1.7-0.1-3.4-0.2-5-0.2-1.2-0.1-1.7-0.7-1.6-1.8 0.5-4.2 1-7.6 1.5-10.4 0.4-2 0.9-3.6 1.3-4.8 0.4-1 0.9-1.6 1.4-1.9 0.6-0.3 1.1 0.3 1.4 1 0.5 0.9 1 2.4 1.2 3.7 0.3 1.7 0.5 4.4 0.5 4.8z" />
    <path stroke="white" class="e"
        d="m265 495c0.1 0.7 0.3 16.7 0.1 20.7-0.5 8.2-1.9 13.8-4.3 15.4-1.1 0.7-1.8 0.5-2.8-0.5-1-1.2-1.9-3.3-2.8-6.4-2-7.2-5.2-26.2-0.2-35.8 0.7-1.5 2.6-3.2 4.2-3.5 2.3-0.5 3.7 0.9 4.7 3.6 0.6 1.7 1 3.9 1.1 6.5z" />

    <path fill-rule="evenodd" class="bg" stroke="white"
        d="m1021.4 372.5c0 167-150.9 308.4-358.6 355.5l-68.2 185.6-45.6-169.9c-12.5 0.7-25.2 1-38 1-281.8 0-510.4-166.6-510.4-372.2 0-205.5 228.6-372.1 510.4-372.1 281.8 0 510.4 166.6 510.4 372.1zm-901.1 112.6c-1.6-3.2-4.4-4.4-7.3-3.6-2.5 0.6-4.9 2.7-6.3 5.3-1.4 2.7-2.4 6.8-3 12-0.9 8.3 0.5 25.7 4 31.7 2 3.8 5.5 5 8.5 3.4 2.6-1.3 4.8-4.3 5.2-7.5 0.1-1-0.5-1.8-1.4-1.9-1-0.1-1.8 0.5-1.9 1.4-0.2 1.2-0.6 2.1-1.2 3.1-1.2 1.8-4 4.1-6.4-0.1-1.4-2.8-2.5-7.5-3.3-14.3-1.2-12.6 0-21.5 2.5-26.3 1.1-1.9 2.4-3.2 4.2-3.7 3-0.7 5.3 4.6 4.5 8.1-0.1 0.9 0.4 1.8 1.3 1.9 0.9 0.2 1.8-0.3 2-1.2 0.5-2.5 0-5.2-1.4-8.3zm22.2 13.8c0.1-5.7-0.4-8.9-1.3-11.5-1.4-3.9-4.2-6.7-8.5-5.8-2.6 0.6-5.3 2.9-6.5 5.3-5.6 11-2 30.7 0.1 38.3 1 3.4 2.1 6 3.4 7.6 1.9 2.2 4.4 2.8 7.1 1.1 1.9-1.2 3.4-3.6 4.3-7.3 1.5-5.4 2-13.1 1.4-27.7zm20.4-16.3c-1 0-1.8 0.5-1.9 1.4-1 7.3-1.1 14.7-0.7 25.4q0.2 8 0.2 11.1v1.3c0 0.5-1.2-2-1.7-3.6-2.4-8.2-6.1-24.4-6.3-25.3-0.3-0.9-0.6-2.2-1.2-3.6-0.3-1.1-0.6-2-0.8-2.5-0.3-0.7-0.3-1-0.3-1.1 0-0.1-0.1-0.1-0.1-0.2 0-0.2 0-0.5-0.1-0.6-0.2-1.1-0.7-1.8-1.7-2-0.4-0.2-0.9-0.2-1.4 0.1-1 0.5-1 1.4-0.9 2.3 0.1 0.3 0.2 0.6 0.2 0.6 0 0 0 3.8 0 3.9 0 1.3-0.1 3.1-0.2 5.5q-0.2 3.8-0.2 5.7c0 2-0.1 5.3-0.3 9.8-0.2 4.7-0.3 8.9-0.3 12.7 0 3.8 0.2 7.1 0.6 9.9 0.1 0.9 0.9 1.5 1.9 1.4 0.9-0.1 1.5-0.9 1.4-1.9-0.4-4.3-0.6-7.7-0.6-10.1 0-2.4 0.1-6.2 0.3-11.1q0.3-7.4 0.3-10.7c0-1.2 0.1-3.1 0.2-5.5 0 0 1.2 3.3 1.5 4.8 0.5 1.9 1.1 4.4 1.8 7.3 1.3 5.7 2.5 10.4 3.8 13.9l2 6.6 1 3c0.2 0.4 0.3 0.8 0.4 1 0 0.3 0.2 0.6 0.3 0.7 0.1 0 0.2 0.2 0.2 0.3 0.5 0.3 1.3 0.6 1.9 0.2 0.8-0.3 1-0.8 1.2-1.5 0.1-0.4 0.2-0.7 0.3-1.2 0-0.9 0-2.1 0.1-3.5v-6.6c0-2.3-0.1-6.1-0.2-11.3-0.4-10.5-0.3-17.6 0.7-24.7 0.1-1-0.5-1.8-1.4-1.9zm24.4 40.3c-0.4-3.7-1.6-6.8-4-9.8-2.5-3-3.4-3.7-6.4-6.6-5.6-5.1-7.7-7.9-7-12.6 0.6-5 4.4-8 8.3-8 3.6 0 6.1 3 4.7 9.3-0.1 0.9 0.4 1.7 1.3 1.9 1 0.2 1.8-0.3 2-1.2 1.8-8.1-2-13.2-8-13.3-5.4 0-10.7 4.3-11.7 10.8-0.4 3.4 0.3 6.4 2.3 9.1 1.9 2.7 2.9 3.7 5.9 6.4 2.9 2.7 3.8 3.6 5.9 6.2 2.1 2.5 3.1 5.1 3.4 8.1 0.7 6.3-2.3 9.5-6 9.1-3.8-0.3-7.5-4.4-7.5-11.8 0-0.9-0.7-1.6-1.6-1.6-0.9 0-1.7 0.7-1.7 1.6 0 8.9 4.6 14.6 10.5 15.2 6 0.5 10.5-4.6 9.6-12.8zm-0.7-91.9c-11.8-13.2-12.9-41.2-11.4-98.4 1.5-57.9 0-93.1-16.7-115.8-14-19.7-29.5-13.6-37.4 3.4-4.6 9.8-7.6 21.9-9.5 36.7-7.2 65.1-9.8 124.2-7.2 177.5 0 4.2 3.8 7.2 8 7.2 4.1 0 7.2-3.8 7.2-7.9-1.6-33.3-1.2-68.2 1.1-104.9 0.4-4.5 2.6-7.5 6.8-7.9 3.4-0.8 7.2-0.8 11.4-1.2 5.6-0.3 9.8-1.1 13.6-1.5 4.9-0.4 7.9 1.9 7.9 6.5 0 2.2-0.3 4.9-0.3 7.5-1.6 59.1-1.2 90.5 15.1 108.7 2.7 3 7.6 3.8 10.6 0.7 3-2.6 3.8-7.5 0.8-10.6zm20.1 62.8c-0.1-0.8-0.2-2.3-0.5-4.5-0.1-1.9-0.2-3.3-0.2-4.4 0-0.9-0.7-1.6-1.7-1.6-0.9 0-1.6 0.7-1.6 1.6 0 1.2 0.1 2.8 0.3 4.7 0.2 2.1 0.3 3.6 0.4 4.4 0.1 1.2 0.1 4.6 0 10.2-0.1 5.7-0.2 9.1-0.2 10.4 0 0.6 0 1.7 0.1 3.2q0 2.2 0 3.5c0 1.6-0.2 4.2-0.8 5.9-1 3.3-2.2 4.9-4.6 5.2-2.2 0.4-3.1-0.4-3.6-2.1-0.5-1.4-0.6-3.7-0.5-6.9 0.2-3.3 0.1-9.8-0.3-19.6-0.3-8.3-0.3-14.6 0.1-19.2 0.1-1-0.6-1.7-1.5-1.8-1-0.1-1.7 0.6-1.8 1.5-0.4 4.7-0.4 11.2-0.1 19.7 0.4 9.9 0.5 16.4 0.3 19.2-0.1 3.6 0 6.3 0.6 8.1 1 3.2 3.4 5 7.3 4.4 4.2-0.6 6-3.4 7.3-7.5 0.6-2.1 0.9-5.1 0.9-6.9 0-0.9 0-2.1 0-3.7-0.1-1.5-0.1-2.5-0.1-3q0-1.9 0.2-10.5c0.1-5.7 0.1-9.1 0-10.3zm17.1 38.5c-1-0.3-3-0.4-5.9-0.2-1.2 0.1-2.2 0-3.1-0.1-0.8-0.1-1.2-0.3-1.3-0.6 0-0.1-0.1-0.2-0.1-0.4-0.1-0.7-0.2-1.8-0.3-3-0.1-0.6-0.1-2.6-0.1-6 0-2.6 0-6.6-0.1-11.8-0.1-10.4-0.1-18.5 0.2-25.8 0-0.9-0.7-1.8-1.6-1.8-0.9 0-1.7 0.7-1.7 1.6-0.3 7.5-0.3 15.4-0.2 25.9 0.1 5.3 0.1 9.3 0.1 11.9 0 3.5 0 5.6 0.1 6.1 0.1 3 0.5 5.7 2.2 6.6 1.4 0.5 3.3 0.8 6.1 0.7 2.5-0.2 4.1-0.2 4.9 0 0.9 0.3 1.7-0.2 1.9-1.1 0.3-1-0.2-1.8-1.1-2zm23.9-47.4c0-0.9-0.8-1.6-1.8-1.6-1.7 0.1-4.7 0.1-8.9-0.1-4-0.1-7-0.1-9.2 0.1-1 0.1-1.6 0.8-1.5 1.7 0 1 0.8 1.7 1.8 1.6 1.2-0.2 2.7-0.2 4.4-0.2 1 0 1.6 0.6 1.6 1.7 0 0.8 0.5 4.2 0.5 2.8 0 0.9-0.1 1.9-0.1 3.2 0 1.8 0 2.9 0 3.7 0 2-0.1 5.4-0.3 10.3-0.4 9.9-0.4 17.5 0.5 23.8 0.1 0.9 1 1.4 1.9 1.4 0.9-0.1 1.5-1 1.4-1.9-0.9-6-0.9-13.4-0.5-23 0.2-4.9 0.3-8.4 0.3-10.6 0-0.5 0-1.6 0-3.3 0.1-2.5 0-4.4-0.1-6.2-0.1-1.1 0.4-1.8 1.5-1.7 3 0.1 5.3 0.1 6.9 0 0.9 0 1.6-0.8 1.6-1.7zm20.6 14c0.1-5.7-0.3-8.9-1.3-11.5-1.4-3.9-4.2-6.7-8.5-5.8-2.6 0.6-5.3 2.9-6.5 5.3-5.6 11-2 30.7 0.1 38.3 1 3.4 2.1 6 3.4 7.6 1.9 2.2 4.4 2.8 7.1 1.1 1.9-1.2 3.4-3.6 4.3-7.3 1.5-5.4 2-13.1 1.4-27.7zm-1.9-67.1c-4.5-1.2-13.6-1.5-26.9-0.8-5.6 0.4-10.2 0-14-0.4-3.7-0.3-5.6-1.5-6-2.6 0-0.8-0.4-1.1-0.4-1.9-0.8-3.4-1.1-8.3-1.5-14-0.4-2.7-0.4-11.7-0.4-27.3 0-12.1 0-30.2-0.4-54.1-0.7-47.7-0.7-84.4 0.8-118.1 0-4.1-3-7.9-7.2-7.9-4.2 0-7.9 3-7.9 7.2-1.6 34.4-1.6 70.4-0.8 118.4 0.4 24.3 0.4 42.4 0.4 54.5 0 15.9 0 25.4 0.4 28.1 0.3 13.6 2.2 25.7 10.2 29.9 6 2.6 15.1 3.7 27.6 3.4 11.7-0.8 18.9-0.8 22.3 0 4.2 1.1 8-1.2 9.1-5.3 1.2-4.2-1.1-8-5.3-9.1zm14.5 75.3q3.9-2.1 6.7-5.7c3.8-4.7 4-10.7 1-14.6-2.9-4.2-8.2-6-14.9-4.3-0.9 0.2-1.4 1-1.1 2 0.1 0.2 0.1 0.4 0.2 0.5 0.8 8.6 0.9 18.7 0.4 30.4 0 0.7-0.1 2-0.2 4l-0.3 4.5c0 2.1 0 5.9 0.2 8.5 0.1 0.9 0.9 1.6 1.8 1.5 0.9-0.1 1.6-0.9 1.5-1.8-0.2-2.6-0.2-6-0.1-8q0.1-1.5 0.2-4.5c0.1-2 0.1-3.3 0.2-4 0-0.6 0.1-1.3 0.1-1.9 0-4.8 1.2-2 1.9-0.5 1.6 3 3 6.4 5.2 12.2 1.1 3 2.2 5.4 3.3 7.2 0.4 0.7 1.4 1.1 2.2 0.6 0.8-0.5 1.2-1.3 0.6-2.3-0.9-1.6-1.9-3.8-3-6.7-1.6-4.1-2.5-6.5-2.9-7.2-1.3-3.1-2.5-5.7-3.6-7.6-0.5-1-0.3-1.8 0.6-2.3zm18.6 26.8c0-1.7-0.1-5.4-0.4-11.1-0.2-4.6-0.2-8.2-0.1-10.9 0.5-11.7 0.5-21 0.3-27.7 0-0.9-0.8-1.6-1.7-1.6-0.9 0-1.6 0.9-1.6 1.8 0.2 6.3 0.1 15.4-0.3 27.4-0.1 2.8-0.1 6.5 0.1 11.1 0.3 5.8 0.4 9.4 0.4 11 0 0.9 0.8 1.7 1.7 1.7 0.9 0 1.6-0.8 1.6-1.7zm21.1-0.2c0-12.9-0.9-25.8-2.7-38.8l-0.2-1.8c-0.3-2.2-0.6-4.2-1-5.8-1.1-3.6-3.5-6-7.1-4.1-2 1-3.1 4.4-4 8.8-1.4 7.2-2.3 16.9-3.3 30.8-0.5 6.2-0.9 9.7-0.9 10.5-0.1 0.9 0.5 1.8 1.4 1.9 0.9 0 1.8-0.5 1.9-1.4 0.1-1 0.5-4.5 0.9-10.7 0.4-5.7 0.8-10.3 1.1-13.5 0-1 0.7-1.6 1.7-1.5 2.1 0.1 4.1 0.2 6.2 0.3 1.1 0.1 1.7 0.6 1.7 1.7q1 11.8 1 23.6c0 0.9 0.8 1.6 1.7 1.6 0.9 0 1.6-0.7 1.6-1.6zm39.4-45.4c-2.6-3.3-5-5-8.7-5.3h-0.1c-0.9 0-1.6 0.7-1.6 1.6v0.2c0 6-0.3 20.4-0.4 23.8q-0.2 14.3 0.7 24.1c0 0.1 0.1 0.1 0.1 0.3 0.2 0.7 0.7 1.1 1.5 1.2 0 0 1.2 0 1.9-0.2 0.3-0.1 0.6-0.3 0.8-0.6 5-5.8 9-13.7 10.6-21.6 1.9-9.6 0.3-17.4-4.8-23.5zm8.6-265.5c4.2 0 7.2-3.7 7.2-7.9 0-4.2-3.8-7.2-7.9-7.2-8 0.4-21.6 0.4-40.9-0.4-18.2-0.4-32.2-0.4-42.4 0.4-4.2 0.4-7.2 3.8-6.8 8 0.4 4.5 3.8 7.5 8.3 7.1 5.7-0.7 12.5-0.7 20.1-0.7 4.9 0 7.5 2.6 7.5 7.6 0 3.6 2.1 20.3 2.3 12.3-0.1 4.3-0.4 9-0.4 15.3-0.4 7.9-0.4 13.2-0.4 16.6 0 9.1-0.3 25-1.1 47.4-1.9 45.4-1.9 80.2 2.3 108.6 0.4 4.2 4.5 6.8 8.7 6.4 4.1-0.4 6.8-4.5 6.4-8.7-4.1-27.2-4.1-60.9-2.3-105.2 0.8-22.3 1.2-38.2 1.2-48.5 0-2.2 0-7.2 0.4-15.1 0.3-11.4 0-20.1-0.8-28.4-0.4-4.9 1.9-7.9 7.2-7.6 13.6 0.4 24.2 0.4 31.4 0zm17.9 260.2c-0.1-0.9-0.8-1.6-1.8-1.5-0.4 0.1-2.5 0-6.5-0.2h-5.4c-0.6 0.1-1.1 0.2-1.5 0.4-1.2 0.8-1.5 2.4-1.8 4.2-0.2 2.6-0.1 6.2 0.4 10.8q0.2 3 0.2 3.5c0 0.6 0 1.9-0.1 3.7-0.1 1.9-0.1 4.1-0.2 6.9-0.3 5.4-0.4 12.6-0.1 17.7q0.1 2.3 0.5 3.7c0.2 1.2 0.6 2.3 1.7 2.7q2.1 1 6.2 0.8c0.6 0 1.7-0.1 3.2-0.2 1.1-0.1 2-0.2 2.4-0.2 1 0 1.7-0.7 1.7-1.6 0-0.9-0.7-1.7-1.7-1.7-0.5 0-1.4 0.1-2.7 0.2-2.4 0.1-4.4 0.4-6.2 0.1-0.9-0.1-1.3-0.4-1.3-0.5 0-0.1-0.1-0.3-0.1-0.4-0.2-0.7-0.3-1.8-0.4-3.2-0.3-4.5-0.2-10.9 0.1-18.5 0.1-1.1 0.6-1.7 1.7-1.7 0.9 0 1.8 0 2.5-0.1 0.9 0 1.6-0.8 1.6-1.7 0-0.9-0.9-1.6-1.8-1.6-0.6 0.1-1.3 0.1-2.1 0.1-1.1 0-1.7-0.6-1.6-1.7 0-1.4 0-2.3 0-2.8 0-0.4-0.1-1.8-0.2-3.8-0.5-4.4-0.6-7.6-0.4-10.2 0.1-0.7 0.2-1.2 0.4-1.5 0-0.1 0.5-0.1 1.4-0.1h3.5c4.2 0.2 6.5 0.3 6.9 0.2 0.4-0.1 0.8-0.3 1.1-0.6 0.3-0.3 0.5-0.7 0.4-1.2zm18.5-39.1q9.6 4.5 28.3 3.4c2.7 0 7.6-0.4 14.4-0.8 5.3-0.3 9.1-0.7 11.4-0.7 4.1 0 7.5-3.4 7.5-7.6 0-4.1-3.4-7.6-7.5-7.6-2.7 0-6.8 0.4-12.5 0.8-11 0.8-20.5 1.9-28.4 0.8-4.2-0.8-6.1-1.9-6.1-2.7 0-0.4-0.3-1.1-0.3-1.5-1.2-3.4-1.5-8.3-1.9-14.8-1.5-20.8-0.8-49.9 0.4-84.8 0.3-4.9 3-7.5 7.9-7.5 4.2 0 8.3 0 11.4-0.4 4.1 0 7.1-3.8 7.1-7.9 0-4.2-3.7-7.2-7.9-7.2-3 0.3-6.1 0.3-9.8 0.3-5 0-7.6-2.6-7.2-7.9 0-6.4 0-10.6 0-12.9 0-1.9-0.4-7.9-1.2-17.4-1.9-20.1-2.6-34.8-1.5-46.5 0.4-3.1 0.8-5.3 1.5-6.9 0-0.3 2.3-0.3 6.5-0.3h16.2c19 0.7 29.6 1.1 31.5 0.7 1.8-0.4 3.7-1.1 5.3-2.6 1.1-1.5 1.8-3.4 1.5-5.7-0.4-4.2-3.8-7.2-8.4-6.8-1.5 0.4-11.3 0-29.5-0.8h-24.6c-3 0.4-5.3 0.8-6.8 1.9-5.7 3.4-7.2 11-8.3 18.9-1.2 12.1-0.4 28.8 1.5 49.6q1.1 13.6 1.1 15.9c0 3 0 8.7-0.4 17.1-0.3 8.7-0.7 18.9-1.1 31.4-1.1 25-1.9 57.9-0.4 81q0.6 10.8 2.3 17c1.1 5.7 3 10.6 8 12.5zm24.7 41.2c-1.5-3.2-4.3-4.4-7.2-3.6-2.6 0.6-4.9 2.7-6.3 5.3-1.4 2.7-2.5 6.8-3.1 12-0.9 8.3 0.5 25.7 4.1 31.7 1.9 3.8 5.4 5 8.4 3.4 2.6-1.3 4.8-4.3 5.2-7.5 0.1-1-0.5-1.8-1.4-1.9-1-0.1-1.8 0.5-1.9 1.4-0.2 1.2-0.6 2.1-1.2 3.1-1.2 1.8-3.9 4.1-6.3-0.1-1.5-2.8-2.6-7.5-3.3-14.3-1.3-12.6-0.1-21.5 2.4-26.3 1.1-1.9 2.4-3.2 4.2-3.7 3-0.7 5.3 4.6 4.5 8.1-0.1 0.9 0.4 1.8 1.4 1.9 0.9 0.2 1.7-0.3 1.9-1.2 0.5-2.5 0-5.2-1.4-8.3zm22.2 13.8c0.1-5.7-0.3-8.9-1.2-11.5-1.4-3.9-4.3-6.7-8.6-5.8-2.6 0.6-5.3 2.9-6.5 5.3-5.5 11-2 30.7 0.1 38.3 1 3.4 2.1 6 3.5 7.6 1.9 2.2 4.3 2.8 7 1.1 1.9-1.2 3.4-3.6 4.3-7.3 1.6-5.4 2-13.1 1.4-27.7zm27.7 35c-0.3-3.9-0.6-8.7-0.7-12.1-0.1-3.3-0.2-9.7-0.2-12.1v-12.5c0-4.4-0.2-9-0.4-11.1q-0.1-0.9-0.3-1.5-0.1-0.4-0.2-0.7c-0.6-1.1-2.2-1.7-3.2-0.4 0 0 0 0-0.1 0-0.2 0.2-0.5 1-0.5 1.2 0 0.1-0.1 0.2-0.1 0.3l-0.1 0.2c-1.1 1.9-2.5 6-4.4 12.1l-0.3 1c-0.4 1.4-1.2 2.1-1.6 1.4-0.1-0.6-0.4-1.1-0.6-1.5l-2-3.9c-1.7-3.6-3.2-6.1-4.8-8.2-0.4-0.7-0.7-1.1-1-1.7 0.1 0.1 0 0.3 0 0.3-0.2-0.2-0.2-0.2-0.3-0.3-0.8-0.9-1.7-1.1-2.7-0.7-0.4 0.3-0.7 0.6-0.8 1-0.1 0.2-0.2 0.5-0.2 0.8v1.2c0 1.6 0.1 4 0.4 7.5 0 1.8 0.1 2.9 0.1 3.5 0.2 3.8 0.2 9.7 0 17.8-0.1 7.9-0.1 14 0.1 18 0 0.9 0.8 1.6 1.7 1.6 1 0 1.6-0.8 1.6-1.8-0.2-3.9-0.2-9.9-0.1-17.7 0.2-8.2 0.2-14.2 0-18.1 0-0.6-0.1-1.7-0.1-3.5-0.1-1.7-0.2-3.1-0.2-4 0-0.1 1.2 1.7 1.5 2.4 0.5 0.8 1 1.8 1.6 2.9 1.3 2.6 2 4.1 2.2 4.4 0.5 0.9 1.2 2.3 1.9 4.3l0.7 1.9c0 0.2 0.1 0.5 0.2 0.6l0.2 0.3 0.1 0.2c0.1 0.1 0.2 0.2 0.3 0.3 0.6 0.4 1.1 0.5 1.6 0.3 0.7-0.2 0.9-0.6 0.9-0.6 0-0.1 0-0.1 0.1-0.2 0-0.3 0.2-0.4 0.2-0.6 0-0.2 0.1-0.2 0.1-0.3 0.1-0.4 0.3-1 0.6-1.8l1.8-5.8c0.3-0.9 0.6-1.9 0.8-2.7 0.5-1.6 1.9-5.9 1.9-1.8 0 1.2 0.1 2.3 0.1 3.4v12.5c0 2.3 0.1 9.2 0.2 12.4 0 3.3 0.4 8.2 0.7 12.2 0.1 0.9 0.9 1.5 1.8 1.4 0.9 0 1.6-0.9 1.5-1.8zm19.3-40.1c-0.1-0.8-0.2-2.3-0.4-4.5-0.2-1.9-0.3-3.3-0.3-4.4 0-0.9-0.7-1.6-1.6-1.6-0.9 0-1.7 0.7-1.7 1.6 0 1.2 0.1 2.8 0.3 4.7 0.2 2.1 0.3 3.6 0.4 4.4 0.1 1.2 0.1 4.6 0.1 10.2-0.2 5.7-0.3 9.1-0.3 10.4 0 0.6 0 1.7 0.1 3.2q0 2.2 0 3.5c0 1.6-0.2 4.2-0.8 5.9-0.9 3.3-2.2 4.9-4.6 5.2-2.2 0.4-3-0.4-3.6-2.1-0.4-1.4-0.6-3.7-0.4-6.9 0.1-3.3 0-9.8-0.4-19.6-0.3-8.3-0.3-14.6 0.1-19.2 0.1-1-0.6-1.7-1.5-1.8-1-0.1-1.7 0.6-1.8 1.5-0.4 4.7-0.4 11.2-0.1 19.7 0.4 9.9 0.5 16.4 0.4 19.2-0.2 3.6 0 6.3 0.5 8.1 1 3.2 3.4 5 7.3 4.4 4.2-0.6 6.1-3.4 7.3-7.5 0.7-2.1 0.9-5.1 0.9-6.9 0-0.9 0-2.1 0-3.7-0.1-1.5-0.1-2.5-0.1-3q0-1.9 0.3-10.5c0-5.7 0-9.1-0.1-10.3zm1.4-54.4c4.2-0.4 7.2-4.2 6.8-8.4-1.1-11.7-1.1-27.6-0.7-36.7q0.6-6.8 1.1-20.4c0.4-9.1 0.4-15.2 0.8-18.6 0-2.6 0.4-5.7 0.4-8.7 0-21.9 5.6-9.1 9-2.3 7.2 14.1 13.7 29.6 23.5 56.1 5.3 13.6 10.2 24.6 15.2 32.9 1.8 3.4 6.4 4.9 10.2 2.6 3.8-2.2 5.3-6 2.6-10.2-4.1-7.5-8.7-17.8-13.6-31-7.2-18.6-11.4-29.5-13.2-32.9-6.1-14-11.8-25.8-16.7-34.9-2.3-4.5-1.1-7.9 3-10.2q17.6-9.6 30.7-26.1c17-21.6 18.2-49.2 4.5-67-13.6-19.3-37.8-27.3-68.1-19.7-4.2 1.2-6.4 4.9-5.3 9.1 0.4 1.1 0.8 1.9 1.1 2.7 3.4 38.9 3.8 85.5 1.5 138.9 0 3-0.3 9-0.7 18.5l-1.1 20.5c-0.4 9.4-0.4 26.8 0.7 38.9 0.4 4.2 4.2 7.2 8.3 6.9zm18.9 43.2c-1 0-1.8 0.5-1.9 1.4-1 7.3-1 14.7-0.7 25.4q0.2 8 0.2 11.1v1.3c0 0.5-1.2-2.1-1.7-3.6-2.4-8.3-6.1-24.4-6.3-25.3-0.2-0.9-0.6-2.2-1.2-3.6-0.3-1.1-0.6-2-0.8-2.5-0.2-0.7-0.3-1-0.3-1.1 0-0.1-0.1-0.1-0.1-0.2 0-0.2 0-0.5-0.1-0.6-0.2-1.1-0.7-1.8-1.6-2-0.5-0.2-1-0.2-1.4 0.1-1 0.5-1 1.4-0.9 2.3 0 0.3 0.1 0.6 0.1 0.6 0 0 0 3.8 0 3.9 0 1.3-0.1 3.1-0.1 5.5q-0.3 3.8-0.3 5.7c0 2-0.1 5.3-0.2 9.8-0.3 4.7-0.4 8.9-0.4 12.7 0 3.8 0.2 7.1 0.6 9.9 0.1 0.9 0.9 1.5 1.9 1.4 0.9-0.1 1.5-0.9 1.4-1.9-0.4-4.3-0.6-7.7-0.6-10.1 0-2.4 0.1-6.2 0.4-11.1q0.2-7.4 0.2-10.7c0-1.2 0.1-3.1 0.2-5.5 0 0 1.2 3.3 1.6 4.8 0.4 1.9 1 4.4 1.7 7.3 1.3 5.7 2.6 10.4 3.8 13.9l2.1 6.6 1 3c0.1 0.4 0.2 0.8 0.3 1 0.1 0.3 0.2 0.6 0.3 0.7 0.1 0 0.2 0.2 0.3 0.3 0.5 0.3 1.2 0.6 1.9 0.2 0.7-0.3 1-0.8 1.1-1.5 0.1-0.4 0.2-0.7 0.3-1.2 0.1-0.9 0.1-2.1 0.1-3.5v-6.6c0-2.3 0-6.1-0.2-11.3-0.3-10.5-0.3-17.6 0.7-24.7 0.1-1-0.5-1.8-1.4-1.9zm10.4 51.3c0-1.7-0.2-5.4-0.4-11.1-0.3-4.6-0.3-8.2-0.2-10.9 0.5-11.7 0.6-21 0.3-27.7 0-0.9-0.8-1.6-1.7-1.6-0.9 0-1.6 0.9-1.6 1.8 0.3 6.3 0.1 15.4-0.3 27.4-0.1 2.8-0.1 6.5 0.1 11.1 0.3 5.8 0.5 9.4 0.5 11 0 0.9 0.7 1.7 1.6 1.7 0.9 0 1.7-0.8 1.7-1.7zm22.5-39.8c0-8.8-3.8-13.6-9-12-4.7 1.4-8.7 7.3-9.4 14.7-1.3 12.3-2.1 25.2 0.6 31.5 1.9 4.6 5.4 7.3 9.1 6.7 3.6-0.6 6.4-4 7.1-8.9 0.1-0.9-0.5-1.8-1.4-1.9-0.9 0-1.8 0.5-1.9 1.4-0.6 3.8-2.3 5.8-4.2 6.1-2 0.3-4.2-1.1-5.7-4.7-2.3-5.3-1.6-17.4-0.3-29.9 0.7-6.4 4-10.9 7-11.8 1.2-0.4 2.2-0.1 3 1 1.3 1.5 1.8 4.1 1.8 7.8 0 0.9 0.8 1.7 1.7 1.7 0.9 0 1.6-0.8 1.6-1.7zm21.1 39.6c0-12.9-0.9-25.8-2.7-38.8l-0.2-1.8c-0.3-2.2-0.6-4.2-1-5.8-1.1-3.6-3.5-6-7.1-4.1-2 1-3.1 4.4-4 8.8-1.4 7.2-2.2 16.9-3.3 30.8-0.5 6.2-0.8 9.7-0.9 10.5-0.1 0.9 0.5 1.8 1.4 1.9 0.9 0 1.8-0.5 1.9-1.4 0.1-1 0.5-4.5 0.9-10.7 0.4-5.7 0.8-10.3 1.1-13.5 0-1 0.7-1.6 1.7-1.5 2.1 0.1 4.1 0.2 6.2 0.3 1.1 0.1 1.7 0.6 1.7 1.7q1 11.8 1 23.6c0 0.9 0.8 1.6 1.7 1.6 0.9 0 1.6-0.7 1.6-1.6zm21.1-11.9c-0.9-0.1-1.9 0.4-2 1.3-0.9 4-1.8 6.5-2.5 7.5-0.2 0.3-0.3 0.4-0.5 0.6-0.6 0.6-1 0.4-1.3 0.4-0.1 0-0.2 0-0.4 0-0.7-0.2-1.5-0.7-2.6-1.5-3.6-2.7-5.1-5.9-6.3-12.2-1.2-6.4-0.9-12.3-0.3-18.2 0.3-3.1 2.7-9.1 5.3-12.5 2.8-3.6 4.8-4 7.1 0.9 1.1 2.4 1.3 3.1 1.1 5-0.1 0.9 0.5 1.8 1.4 1.9 1 0 1.8-0.6 1.9-1.5 0.2-2.8-0.1-4-1.4-6.7-3.6-7.6-8.6-6.9-12.7-1.6-3 3.9-5.6 10.4-6 14.1-0.6 6.1-1 12.3 0.4 19.2 1.2 7 3.2 10.9 7.5 14.3 0.3 0.2 0.7 0.5 0.9 0.6 0.9 0.6 1.2 1.3 0.7 2.3l0.2-0.5c-0.4 0.8-0.6 1.4-0.9 1.8l-0.4 0.8c-0.1 0.2-0.1 0.3-0.1 0.4-0.2 0.4-0.2 1 0.2 1.4 0.4 0.7 0.9 0.8 1.1 0.8 0 0 0.1 0.1 0.2 0.1 0.3 0 0.5 0 0.9 0.1 2 0.4 3.2 0.6 3.8 1.2 0.1 0.1 0.2 0.2 0.2 0.4-0.1 0.4-0.4 0.7-1.2 0.8-0.5 0.2-1.5 0.3-3 0.3-0.9 0-1.6 0.9-1.6 1.8 0 0.9 0.8 1.6 1.7 1.6 3.6-0.1 7-0.5 7.4-4.2 0.3-2.6-1.9-3.9-4.3-4.6 0 0-1.1-1-0.4-2.1l-0.7 1.1 0.5-0.9c0.5-0.7 1-1 1.8-1.3 0.9-0.4 1.8-1.1 2.5-2.1q1.4-2.1 3-8.7c0.2-0.9-0.3-1.9-1.2-2.1zm2.6-132.8c1.1 26.5 1.8 43.2 1.8 50.4 0 4.1 3.5 7.5 7.6 7.5 4.2 0 7.6-3.4 7.6-7.5 0-8-0.8-25-1.9-51.1-1.1-20.9-1.1-37.1-0.8-49.6 2.3-53.8 2.7-96.2 1.6-126.8 0-4.2-3.8-7.2-8-7.2-4.2 0-7.2 3.8-7.2 7.9 1.1 28.8 0.4 70.4-1.5 125.3-0.4 12.9-0.4 29.9 0.8 51.1zm15.8 84.7c-0.8-0.3-1.8 0.2-2.2 1 0 0.3-0.2 0.6-0.3 0.7-0.3 0.9-0.9 1.1-1.5 0.9-0.2-0.2-0.5-0.4-0.8-0.5-3.2-2.1-6-2.2-8.3 3-0.4 0.9-0.1 1.8 0.9 2.2 0.9 0.4 1.8 0.1 2.1-0.8 1.3-3 1.8-2.8 3.6-1.7 3 2 5.8 2.4 7.5-2.6 0.3-1-0.2-1.9-1-2.2zm5 59.4c-1.7-7.2-2.1-15.1-2.1-25.4-0.1-5.1-0.2-9.1-0.4-12-0.4-5.7-1.8-13-7.4-13.3-5.7-0.3-7.3 6.5-8.1 12.5-0.6 4.7-1 11-1.1 19-0.2 9.2-0.5 15.4-0.8 18.7-0.1 0.9 0.6 1.7 1.5 1.8 0.9 0.1 1.7-0.6 1.8-1.5 0.3-2.5 0.5-8.8 0.8-18.9 0-1.5 0-2.8 0-4 0.1-0.9 0.5-1.6 1.4-1.8 1.8-0.7 4.2-0.9 7.2-1 1.1-0.1 1.7 0.5 1.7 1.7 0.1 3.3 0.2 5.7 0.2 7.5 0.2 4 0.8 12.1 2.2 17.5 0.2 0.9 1.1 1.4 2 1.2 0.9-0.3 1.4-1.1 1.1-2zm20.7-34.2c0.1-5.7-0.3-8.9-1.2-11.5-1.4-3.9-4.2-6.7-8.5-5.8-2.7 0.6-5.3 2.9-6.6 5.3-5.5 11-2 30.7 0.1 38.3 1 3.4 2.2 6 3.5 7.6 1.9 2.2 4.4 2.8 7 1.1 1.9-1.2 3.4-3.6 4.3-7.3 1.6-5.4 2-13.1 1.4-27.7zm45.9-15.9c-0.1-0.9-0.8-1.6-1.8-1.5-0.3 0.1-2.5 0-6.4-0.2h-5.4c-0.7 0.1-1.2 0.2-1.5 0.4-1.3 0.8-1.6 2.4-1.8 4.2-0.3 2.6-0.1 6.2 0.3 10.8q0.2 3 0.2 3.5c0 0.6 0 1.9 0 3.7-0.1 1.9-0.2 4.1-0.3 6.9-0.2 5.4-0.4 12.6-0.1 17.7q0.2 2.3 0.5 3.7c0.3 1.2 0.7 2.3 1.8 2.7q2.1 1 6.2 0.8c0.5 0 1.6-0.1 3.1-0.2 1.2-0.1 2-0.2 2.5-0.2 0.9 0 1.6-0.7 1.6-1.6 0-0.9-0.7-1.7-1.6-1.7-0.6 0-1.5 0.1-2.7 0.2-2.4 0.1-4.5 0.4-6.2 0.1-0.9-0.1-1.4-0.4-1.4-0.5 0-0.1 0-0.3 0-0.4-0.3-0.7-0.4-1.8-0.5-3.2-0.3-4.5-0.1-10.9 0.1-18.5 0.1-1.1 0.7-1.7 1.8-1.7 0.9 0 1.8 0 2.4-0.1 1 0 1.6-0.8 1.6-1.7 0-0.9-0.8-1.6-1.7-1.6-0.7 0.1-1.3 0.1-2.2 0.1-1 0-1.6-0.6-1.5-1.7 0-1.4 0-2.3 0-2.8 0-0.4-0.1-1.8-0.3-3.8-0.4-4.4-0.6-7.6-0.3-10.2 0.1-0.7 0.1-1.2 0.3-1.5 0-0.1 0.5-0.1 1.4-0.1h3.6c4.1 0.2 6.4 0.3 6.8 0.2 0.4-0.1 0.9-0.3 1.2-0.6 0.2-0.3 0.4-0.7 0.3-1.2zm26.5-260.2c4.1 0 7.2-3.7 7.2-7.9 0-4.2-3.8-7.2-8-7.2-7.9 0.4-21.5 0.4-40.9-0.4-18.1-0.4-32.1-0.4-42.3 0.4-4.2 0.4-7.2 3.8-6.9 8 0.4 4.5 3.8 7.5 8.4 7.1 5.6-0.7 12.5-0.7 20-0.7 5 0 7.6 2.6 7.6 7.6 0 3.6 2.1 20.3 2.3 12.3-0.1 4.3-0.4 9-0.4 15.3-0.4 7.9-0.4 13.2-0.4 16.6 0 9.1-0.4 25-1.1 47.4-1.9 45.4-1.9 80.2 2.3 108.6 0.3 4.2 4.5 6.8 8.7 6.4 4.1-0.4 6.8-4.5 6.4-8.7-4.2-27.2-4.2-60.9-2.3-105.2 0.8-22.3 1.2-38.2 1.2-48.5 0-2.2 0-7.2 0.3-15.1 0.4-11.4 0-20.1-0.7-28.4-0.4-4.9 1.9-7.9 7.2-7.6 13.6 0.4 24.2 0.4 31.4 0zm4.1 259.1c-0.9 0-1.6 0.7-1.6 1.6 0 0 0.1 1-0.1 1.9-0.5 2.6-0.7 6.1-0.6 11 0 5.5 0 7.1 0.3 13.4 0.2 3.3 0.3 4.9 0.3 5.1 0.1 0.9 0 3.9-0.1 8.9q-0.1 6 0.5 9.5 0.1 0.6 0.7 1c0.4 0.2 0.7 0.3 1 0.3 0.9 0 1.2-0.3 1.7-0.3 0.2 0 0.5-0.1 0.7-0.2 5.9-3 11.5-15.9 12.6-27.9 1.3-13.6-3.1-24.3-15.4-24.3zm24.5 52c0-1.7-0.2-5.4-0.4-11.1-0.3-4.6-0.3-8.2-0.2-10.9 0.5-11.7 0.6-21 0.4-27.7 0-0.9-0.9-1.6-1.8-1.6-0.9 0-1.5 0.9-1.5 1.8 0.2 6.3 0 15.4-0.4 27.4-0.1 2.8-0.1 6.5 0.2 11.1 0.2 5.8 0.4 9.4 0.4 11 0 0.9 0.7 1.7 1.7 1.7 0.9 0 1.6-0.8 1.6-1.7zm2-95.3c0.8-4.2 2.3-20.4 4.2-48.8 1.9-26.2 3.8-47 4.9-61.7 0.4-4.6 3.4-7.2 8-6.8 9.4 0.3 18.9 0.7 28.4 1.5 4.9 0.3 7.5 2.6 7.9 7.5q4.6 54 4.6 107.9c0 4.2 3.4 7.6 7.5 7.6 4.2 0 7.6-3.4 7.6-7.6 0-58.7-4.2-117.7-12.5-177.5l-1.1-8c-1.2-10.2-2.7-19.3-4.6-26.8-4.9-16.3-15.9-27.3-32.5-18.6-9.1 4.6-14 20.1-18.2 40.1-6.4 33-10.2 77.6-15.1 141.2-2.3 28.4-3.8 44.3-4.2 47.7-0.4 4.2 2.3 8.4 6.4 8.7 4.2 0.4 8.4-2.2 8.7-6.4zm18.7 45.2c-0.9-0.3-1.8 0.2-2.1 1.1-1.3 4.4-2.3 8.8-3.1 14.4-0.9 5.5-1.2 7.6-1.8 14.3-0.5 3.4-0.7 5.6-0.9 6.8l-0.1 1.9c0 0-0.4 2.7-0.9 0.9-0.3-0.9-0.4-1.7-0.5-2.3-2.4-13.5-3.7-20.8-3.8-22-0.2-1-0.4-2.5-0.6-4.6-0.5-4.2-1-7.4-1.9-10.5-0.3-0.9-1.1-1.4-2-1.2-0.9 0.3-1.4 1.1-1.2 2 0.8 3.3 1.3 6 1.8 10 0.2 2.1 0.4 3.7 0.5 4.8 0.3 1.2 1.5 8.5 3.9 22.2 0.3 1.6 0.8 3.7 1.5 6.6 0.3 1.3 0.5 2.3 0.8 3.1 0.1 0.4 0.2 0.7 0.3 1 0.1 0.1 0.1 0.3 0.2 0.4l0.2 0.5c0.1 0.1 0.6 0.5 1 0.6 0.6 0 1.2-0.1 1.7-0.5 0.3-0.5 0.6-1 0.9-2 0.2-0.9 0.4-2 0.6-3.4 0.3-1.4 0.9-7.3 1.7-14 0.7-6.7 1.1-8.8 1.9-14.1 0.8-5.3 1.7-9.6 3-13.9 0.3-0.9-0.2-1.8-1.1-2.1zm22.1-0.8c-0.1-0.9-0.9-1.6-1.8-1.5-0.4 0.1-2.5 0-6.5-0.2h-5.4c-0.6 0.1-1.1 0.2-1.5 0.4-1.2 0.8-1.5 2.4-1.8 4.2-0.2 2.6-0.1 6.2 0.3 10.8q0.3 3 0.3 3.5c0 0.6 0 1.9-0.1 3.7-0.1 1.9-0.2 4.1-0.2 6.9-0.3 5.4-0.4 12.6-0.1 17.7q0.1 2.3 0.5 3.7c0.2 1.2 0.6 2.3 1.7 2.7q2.1 1 6.2 0.8c0.6 0 1.7-0.1 3.2-0.2 1.1-0.1 1.9-0.2 2.4-0.2 1 0 1.7-0.7 1.7-1.6 0-0.9-0.7-1.7-1.7-1.7-0.5 0-1.4 0.1-2.7 0.2-2.4 0.1-4.5 0.4-6.2 0.1-0.9-0.1-1.3-0.4-1.3-0.5 0-0.1-0.1-0.3-0.1-0.4-0.2-0.7-0.3-1.8-0.4-3.2-0.3-4.5-0.2-10.9 0.1-18.5 0.1-1.1 0.6-1.7 1.7-1.7 0.9 0 1.8 0 2.5-0.1 0.9 0 1.6-0.8 1.6-1.7 0-0.9-0.9-1.6-1.8-1.6-0.6 0.1-1.3 0.1-2.1 0.1-1.1 0-1.7-0.6-1.6-1.7 0-1.4 0-2.3 0-2.8 0-0.4-0.1-1.8-0.2-3.8-0.5-4.4-0.6-7.6-0.4-10.2 0.1-0.7 0.2-1.2 0.4-1.5 0-0.1 0.5-0.1 1.4-0.1h3.5c4.2 0.2 6.5 0.3 6.9 0.2 0.4-0.1 0.8-0.3 1.1-0.6 0.3-0.3 0.5-0.7 0.4-1.2zm12.5 24.1q3.8-2.1 6.7-5.7c3.7-4.7 3.9-10.7 1-14.6-3-4.2-8.3-6-14.9-4.3-0.9 0.2-1.4 1-1.2 2 0.1 0.2 0.2 0.4 0.3 0.5 0.7 8.6 0.8 18.7 0.3 30.4 0 0.7-0.1 2-0.2 4l-0.2 4.5c-0.1 2.1-0.1 5.9 0.1 8.5 0.1 0.9 0.9 1.6 1.9 1.5 0.9-0.1 1.5-0.9 1.4-1.8-0.2-2.6-0.2-6-0.1-8q0.1-1.5 0.2-4.5c0.1-2 0.1-3.3 0.2-4 0-0.6 0.1-1.3 0.1-1.9 0-4.8 1.2-2 2-0.5 1.5 3 2.9 6.4 5.1 12.2 1.1 3 2.2 5.4 3.3 7.2 0.4 0.7 1.4 1.1 2.2 0.6 0.9-0.5 1.2-1.3 0.6-2.3-0.9-1.6-1.9-3.8-3-6.7-1.5-4.1-2.4-6.5-2.9-7.2-1.3-3.1-2.5-5.7-3.6-7.6-0.5-1-0.2-1.8 0.7-2.3zm32.6 15.8c-0.4-3.7-1.5-6.8-4-9.8-2.5-3-3.3-3.7-6.4-6.6-5.5-5.1-7.7-7.9-7-12.6 0.6-5 4.4-8 8.3-8 3.7 0 6.2 3 4.7 9.3 0 0.9 0.5 1.7 1.4 1.9 0.9 0.2 1.7-0.3 2-1.2 1.7-8.1-2.1-13.2-8.1-13.3-5.3 0-10.7 4.3-11.6 10.8-0.4 3.4 0.2 6.4 2.2 9.1 1.9 2.7 2.9 3.7 5.9 6.4 3 2.7 3.9 3.6 5.9 6.2 2.1 2.5 3.1 5.1 3.4 8.1 0.7 6.3-2.3 9.5-5.9 9.1-3.9-0.3-7.6-4.4-7.6-11.8 0-0.9-0.7-1.6-1.6-1.6-0.9 0-1.7 0.7-1.7 1.6 0 8.9 4.7 14.6 10.5 15.2 6 0.5 10.5-4.6 9.6-12.8zm9 11c0-1.7-0.1-5.4-0.4-11.1-0.2-4.6-0.2-8.2-0.1-10.9 0.5-11.7 0.5-21 0.3-27.7 0-0.9-0.8-1.6-1.7-1.6-0.9 0-1.6 0.9-1.6 1.8 0.2 6.3 0.1 15.4-0.3 27.4-0.1 2.8-0.1 6.5 0.1 11.1 0.3 5.8 0.4 9.4 0.4 11 0 0.9 0.8 1.7 1.7 1.7 0.9 0 1.6-0.8 1.6-1.7zm14.6-45.6c-2.6-3.3-5-5-8.7-5.3h-0.1c-0.9 0-1.6 0.7-1.6 1.6v0.2c0 6-0.3 20.4-0.4 23.8q-0.2 14.3 0.7 24.1c0 0.1 0.1 0.1 0.1 0.3 0.2 0.7 0.7 1.1 1.5 1.2 0 0 1.2 0 1.9-0.2 0.3-0.1 0.6-0.3 0.8-0.6 5-5.8 9-13.7 10.6-21.6 1.9-9.6 0.3-17.4-4.8-23.5zm26.6 45.4c0-12.9-0.9-25.8-2.7-38.8l-0.2-1.8c-0.3-2.2-0.6-4.2-1-5.8-1.1-3.6-3.5-6-7.1-4.1-2 1-3.1 4.4-4 8.8-1.4 7.2-2.2 16.9-3.3 30.8-0.5 6.2-0.9 9.7-0.9 10.5-0.1 0.9 0.5 1.8 1.4 1.9 0.9 0 1.8-0.5 1.9-1.4 0.1-1 0.5-4.5 0.9-10.7 0.4-5.7 0.8-10.3 1.1-13.5 0-1 0.7-1.6 1.7-1.5 2.1 0.1 4.1 0.2 6.2 0.3 1.1 0.1 1.7 0.6 1.7 1.7q1 11.8 1 23.6c0 0.9 0.8 1.6 1.7 1.6 0.9 0 1.6-0.7 1.6-1.6zm14.6-45.4c-2.7-3.3-5-5-8.7-5.3h-0.1c-0.9 0-1.6 0.7-1.6 1.6v0.2c0 6-0.4 20.4-0.4 23.8q-0.2 14.3 0.7 24.1c0 0.1 0.1 0.1 0.1 0.3 0.2 0.7 0.7 1.1 1.5 1.2 0 0 1.2 0 1.9-0.2 0.3-0.1 0.6-0.3 0.8-0.6 5-5.8 9-13.7 10.6-21.6 1.9-9.6 0.3-17.4-4.8-23.5zm26.5-5.3c-0.1-0.9-0.9-1.6-1.9-1.5-0.3 0.1-2.4 0-6.4-0.2h-5.4c-0.6 0.1-1.1 0.2-1.5 0.4-1.2 0.8-1.5 2.4-1.8 4.2-0.2 2.6-0.1 6.2 0.3 10.8q0.3 3 0.3 3.5c0 0.6 0 1.9-0.1 3.7-0.1 1.9-0.2 4.1-0.2 6.9-0.3 5.4-0.5 12.6-0.1 17.7q0.1 2.3 0.5 3.7c0.2 1.2 0.6 2.3 1.7 2.7q2.1 1 6.2 0.8c0.6 0 1.7-0.1 3.2-0.2 1.1-0.1 1.9-0.2 2.4-0.2 0.9 0 1.7-0.7 1.7-1.6 0-0.9-0.8-1.7-1.7-1.7-0.5 0-1.5 0.1-2.7 0.2-2.4 0.1-4.5 0.4-6.2 0.1-0.9-0.1-1.3-0.4-1.3-0.5 0-0.1-0.1-0.3-0.1-0.4-0.3-0.7-0.3-1.8-0.4-3.2-0.3-4.5-0.2-10.9 0.1-18.5 0-1.1 0.6-1.7 1.7-1.7 0.9 0 1.8 0 2.5-0.1 0.9 0 1.6-0.8 1.6-1.7 0-0.9-0.9-1.6-1.8-1.6-0.6 0.1-1.3 0.1-2.1 0.1-1.1 0-1.7-0.6-1.6-1.7 0-1.4 0-2.3 0-2.8 0-0.4-0.1-1.8-0.3-3.8-0.4-4.4-0.5-7.6-0.3-10.2 0.1-0.7 0.2-1.2 0.3-1.5 0-0.1 0.5-0.1 1.5-0.1h3.5c4.1 0.2 6.5 0.3 6.9 0.2 0.4-0.1 0.8-0.3 1.1-0.6 0.3-0.3 0.4-0.7 0.4-1.2zm0-268.1c0-4.2-3.8-7.2-8-7.2-7.9 0.4-21.5 0.4-40.8-0.4-18.2-0.4-32.2-0.4-42.4 0.4-4.2 0.4-7.2 3.8-6.8 8 0.3 4.5 3.7 7.5 8.3 7.1 5.7-0.7 12.5-0.7 20-0.7 5 0 7.6 2.6 7.6 7.6 0 3.6 2.1 20.3 2.3 12.3-0.1 4.3-0.4 9-0.4 15.3-0.4 7.9-0.4 13.2-0.4 16.6 0 9.1-0.4 25-1.1 47.4-1.9 45.4-1.9 80.2 2.3 108.6 0.3 4.2 4.5 6.8 8.7 6.4 4.1-0.4 6.8-4.5 6.4-8.7-4.2-27.2-4.2-60.9-2.3-105.2 0.8-22.3 1.2-38.2 1.2-48.5 0-2.2 0-7.2 0.3-15.1 0.4-11.4 0-20.1-0.7-28.4-0.4-4.9 1.9-7.9 7.2-7.6 13.6 0.4 24.2 0.4 31.4 0 4.2 0 7.2-3.7 7.2-7.9z" />
    <path stroke="white" class="e"
        d="m848.4 490.4c8.1 9.8 5 25-2.5 36.3-0.8 1.4-2.2 1-2.3-0.6-0.2-4.9-0.3-10.8-0.2-17.4 0.1-3.5 0.3-13.7 0.4-19.8 0-1.3 0.9-2 1.9-1.1 0.9 0.5 1.7 1.5 2.7 2.6z" />
    <path stroke="white" class="e" d="m159.5 520.5l-0.7-2.3q0.4 1.3 0.7 2.3z" />
    <path stroke="white" class="e"
        d="m871.5 495.4c0.4 2.6 0.7 5.3 1.1 7.9 0.1 1.2-0.6 1.7-1.8 1.7-1.7-0.1-3.4-0.2-5-0.2-1.2-0.1-1.7-0.7-1.6-1.8 0.5-4.2 1-7.6 1.5-10.4 0.4-2 0.9-3.6 1.3-4.8 0.4-1 0.9-1.6 1.4-1.9 0.6-0.3 1.1 0.3 1.4 1 0.5 0.9 1 2.4 1.2 3.7 0.3 1.7 0.5 4.4 0.5 4.8z" />
    <path stroke="white" class="e"
        d="m139.2 495c0 0.7 0.3 16.7 0 20.7-0.4 8.2-1.9 13.8-4.3 15.4-1 0.7-1.7 0.5-2.7-0.5-1-1.2-1.9-3.3-2.8-6.4-2-7.2-5.2-26.2-0.2-35.8 0.7-1.5 2.6-3.2 4.2-3.5 2.3-0.5 3.7 0.9 4.7 3.6 0.6 1.7 1 3.9 1.1 6.5z" />
    <path stroke="white" class="lett-big"
        d="m146.4 225.9c12.1 16.2 13.7 44.6 14 68.9 0 4.9-2.6 7.5-7.5 7.5h6c-3 0.4-10.2 1.2-21.2 2.3-3 0-5.3 0.4-7.9 0.8-4.6 0.3-7.2-1.9-6.8-7.6 2.2-28 4.9-56 11.7-71.2 4.2-8.7 5.3-9.4 11.7-0.7z" />
    <path stroke="white" class="e"
        d="m889.6 490.4c8.1 9.8 5 25-2.5 36.3-0.8 1.4-2.2 1-2.3-0.6-0.2-4.9-0.3-10.8-0.2-17.4 0.1-3.5 0.3-13.7 0.4-19.8 0-1.3 0.9-2 1.9-1.1 0.9 0.5 1.7 1.5 2.7 2.6z" />
</svg>